<svg width="81" height="80" viewBox="0 0 81 80" fill="none" xmlns="http://www.w3.org/2000/svg">
<g clip-path="url(#clip0_49_28)">
<path d="M74.4063 16.9758H46.0527C43.4099 16.9758 41.194 18.7987 40.5909 21.2556C39.9877 18.7987 37.7718 16.9758 35.129 16.9758H6.77539C3.66883 16.9758 1.15039 19.4942 1.15039 22.6008V63.9534C1.15039 67.06 3.66883 69.5784 6.77539 69.5784H35.129C35.1604 69.5784 35.1912 69.5765 35.2224 69.5761C36.542 70.994 38.4498 71.8855 40.5719 71.8855C42.6948 71.8855 44.6029 70.9937 45.9224 69.5753C45.9659 69.5762 46.009 69.5786 46.0527 69.5786H74.4063C77.5129 69.5786 80.0313 67.0601 80.0313 63.9536V22.6008C80.0313 19.4942 77.5129 16.9758 74.4063 16.9758Z" fill="#A273C6"/>
<path d="M41.2141 59.1144L41.3239 59.362L41.6241 60.015L42.0664 60.9381C42.2271 61.2758 42.4133 61.6361 42.5917 61.9964L42.8607 62.5339C42.9477 62.7128 43.0448 62.8866 43.1514 63.0545C43.2593 63.2168 43.3671 63.3791 43.475 63.5414C43.5711 63.6962 43.6533 63.8425 43.7105 63.9776C43.7697 64.1128 43.8111 64.2365 43.83 64.3464C43.8478 64.44 43.8516 64.5358 43.8414 64.6306C43.8235 64.7883 43.763 64.8783 43.763 64.8783C42.5789 66.6406 40.1905 67.1094 38.4283 65.9255C38.0155 65.6465 37.6601 65.291 37.3811 64.8783C37.3811 64.8783 37.3207 64.7883 37.3027 64.6306C37.2925 64.5358 37.2963 64.44 37.3141 64.3464C37.333 64.2367 37.3744 64.1128 37.4336 63.9776C37.4908 63.8425 37.5728 63.6962 37.6691 63.5414L37.9925 63.0545C38.0992 62.8866 38.1962 62.7128 38.2833 62.5339L38.5522 61.9964C38.7307 61.6361 38.9169 61.2759 39.0775 60.9381L39.52 60.015L39.8202 59.362L39.93 59.1144C39.9851 58.99 40.0751 58.8844 40.1891 58.8102C40.303 58.736 40.4361 58.6965 40.5721 58.6965C40.708 58.6965 40.8411 58.736 40.9551 58.8102C41.069 58.8844 41.159 58.99 41.2141 59.1144Z" fill="#445056"/>
<path d="M71.6801 13.5653H46.064C43.4037 13.5653 41.1763 15.4127 40.5908 17.8941C40.0052 15.4127 37.7779 13.5653 35.1177 13.5653H9.50146C6.3949 13.5653 3.87646 16.0837 3.87646 19.1903V60.0819C3.87646 63.1884 6.3949 65.7069 9.50146 65.7069H35.1176C37.7779 65.7069 40.0052 63.8595 40.5907 61.3781C41.1763 63.8595 43.4037 65.7069 46.0638 65.7069H71.6799C74.7865 65.7069 77.3049 63.1884 77.3049 60.0819V19.1903C77.3051 16.0836 74.7868 13.5653 71.6801 13.5653Z" fill="white"/>
<path d="M39.4096 9.62547C29.3102 3.56906 19.7463 18.0837 9.6468 12.0273C8.72117 11.4672 7.9707 11.82 7.9707 13.0764V59.0031C7.9707 60.0744 8.55195 61.0264 9.34555 61.1389C9.4432 61.1528 9.54398 61.1883 9.6468 61.2505C19.7462 67.3069 29.8455 52.7922 39.9449 58.8486C40.1024 58.9439 40.3316 59.115 40.5152 59.252C40.8987 59.5381 41.621 58.967 41.621 58.1063L40.428 12.8456C40.428 11.6167 40.3352 10.1858 39.4096 9.62547Z" fill="#D8CADB"/>
<path d="M41.9588 9.62547C52.0582 3.56906 62.1576 18.0837 72.2569 12.0273C73.1826 11.4672 73.933 11.82 73.933 13.0764V58.2781C73.933 59.6186 73.2732 60.7545 72.3337 61.2087C72.3075 61.2215 72.2819 61.2354 72.2569 61.2505C62.1576 67.3069 52.054 52.7797 41.9588 58.8486C40.7369 59.5831 40.2827 59.3822 40.2827 58.6933V11.8477C40.2827 10.6187 41.0332 10.1858 41.9588 9.62547Z" fill="#ECE2F3"/>
</g>
<defs>
<clipPath id="clip0_49_28">
<rect width="80" height="80" fill="white" transform="translate(0.5)"/>
</clipPath>
</defs>
</svg>
