<svg width="75" height="64" viewBox="0 0 75 64" fill="none" xmlns="http://www.w3.org/2000/svg">
<path d="M27.5002 10.6666C31.0364 10.6666 34.4278 12.0714 36.9283 14.5719C39.4287 17.0724 40.8335 20.4637 40.8335 24C40.8335 27.5362 39.4287 30.9276 36.9283 33.4281C34.4278 35.9285 31.0364 37.3333 27.5002 37.3333C23.9639 37.3333 20.5726 35.9285 18.0721 33.4281C15.5716 30.9276 14.1668 27.5362 14.1668 24C14.1668 20.4637 15.5716 17.0724 18.0721 14.5719C20.5726 12.0714 23.9639 10.6666 27.5002 10.6666ZM27.5002 44C36.4002 44 54.1668 48.4666 54.1668 57.3333V64H0.833496V57.3333C0.833496 48.4666 18.6002 44 27.5002 44ZM53.3668 11.8666C60.1002 19.2 60.1002 29.3666 53.3668 36.1L47.7668 30.4666C50.5668 26.5333 50.5668 21.4333 47.7668 17.5L53.3668 11.8666ZM64.4002 0.666626C77.5002 14.1666 77.4002 34.3666 64.4002 47.3333L58.9668 41.9C68.2002 31.3 68.2002 16.1666 58.9668 6.09996L64.4002 0.666626Z" fill="white"/>
</svg>
