<svg width="81" height="80" viewBox="0 0 81 80" fill="none" xmlns="http://www.w3.org/2000/svg">
<path d="M61.5503 63.9541L64.1581 61.3997C76.2233 61.7883 76.4087 61.3712 76.939 60.1483L80.2537 52.191L80.5 51.4367L80.2305 50.7767C80.0886 50.4281 79.651 49.3881 72.1175 42.3052V38.5794C80.81 30.3221 80.6246 29.8993 80.1291 28.6907L76.8289 20.6505C76.3334 19.4448 76.1451 18.9734 64.1668 19.2962L61.559 16.6391C61.8282 12.725 61.6913 8.79407 61.1505 4.90744L60.8144 4.156L52.1972 0.441662C50.9281 -0.129775 50.4819 -0.335493 42.3457 8.40178L38.6891 8.3475C30.3124 -0.469781 29.9154 -0.309778 28.6608 0.190229L20.6492 3.38456C19.3946 3.88457 18.9513 4.06172 19.4381 16.0619L16.8506 18.6048C4.7912 18.2162 4.60576 18.6391 4.08131 19.8562L0.760776 27.8164L0.5 28.5792L0.772365 29.2421C0.914343 29.585 1.33448 30.6136 8.88537 37.7051V41.4194C0.192866 49.6767 0.381203 50.0996 0.879573 51.311L4.17693 59.3597C4.68109 60.5912 4.86074 61.0283 16.8361 60.7197L19.4439 63.3912C19.1736 67.2992 19.3066 71.2242 19.8408 75.1057L20.1769 75.8628L28.8491 79.6C30.1096 80.12 30.5471 80.3057 38.6601 71.5999L42.3167 71.6456C50.705 80.4743 51.1338 80.3029 52.3595 79.8143L60.3537 76.6285C61.617 76.1342 62.0574 75.96 61.5503 63.9541ZM27.1918 45.3138C26.1807 42.7082 25.9725 39.8662 26.5934 37.1443C27.2143 34.4225 28.6365 31.9421 30.6816 30.0143C32.7267 28.0866 35.3037 26.7974 38.0891 26.3085C40.8745 25.8195 43.7443 26.1527 46.3384 27.2661C48.9325 28.3795 51.1354 30.2236 52.6706 32.567C54.2058 34.9104 55.005 37.6486 54.9679 40.4382C54.9307 43.2278 54.059 45.9445 52.4619 48.2473C50.8648 50.5501 48.6136 52.3366 45.9908 53.3825C42.4121 54.7624 38.4249 54.6882 34.9016 53.1759C31.3784 51.6637 28.6062 48.8368 27.1918 45.3138Z" fill="white"/>
</svg>
